<svg width="24" height="24" viewBox="0 0 24 24" fill="none" xmlns="http://www.w3.org/2000/svg">
<path d="M12.0095 22.9996C11.5395 22.9996 11.0795 22.9496 10.6195 22.8496C7.10953 22.0996 4.87953 18.6396 5.62953 15.1296C5.87953 13.9496 6.45953 12.8696 7.28953 11.9996C7.45341 11.8268 7.54477 11.5977 7.54477 11.3596C7.54477 11.1214 7.45341 10.8923 7.28953 10.7196C5.20953 8.13956 5.60953 4.35956 8.18953 2.27956C10.7695 0.19956 14.5495 0.60656 16.6295 3.18956C18.3995 5.37956 18.3995 8.49956 16.6295 10.7196C16.3395 11.1296 16.3795 11.6996 16.7295 12.0596C19.1795 14.6796 19.0495 18.7996 16.4195 21.2496C15.2258 22.3729 13.6487 22.9987 12.0095 22.9996ZM12.0095 2.99956C11.0995 2.99956 10.2095 3.30956 9.50953 3.88956C9.09923 4.21633 8.75757 4.62097 8.5042 5.08023C8.25082 5.53949 8.09072 6.04431 8.0331 6.56565C7.97548 7.087 8.02148 7.61459 8.16846 8.11809C8.31544 8.6216 8.56049 9.09108 8.88953 9.49956C9.84953 10.6396 9.77953 12.3296 8.73953 13.4096C7.03953 15.2196 7.13953 18.0696 8.94953 19.7696C10.7595 21.4696 13.6095 21.3796 15.3095 19.5596C16.0899 18.7258 16.524 17.6265 16.524 16.4846C16.524 15.3426 16.0899 14.2433 15.3095 13.4096C14.7922 12.882 14.4878 12.1821 14.4546 11.444C14.4213 10.7059 14.6617 9.98145 15.1295 9.40956C15.7921 8.58189 16.0989 7.52504 15.9827 6.47124C15.8664 5.41745 15.3366 4.45291 14.5095 3.78956C14.0095 3.40956 13.4795 3.13956 12.8895 2.99956H12.0095ZM12.0095 5.99956C12.0095 6.54956 12.4595 6.99956 13.0095 6.99956C13.5595 6.99956 14.0095 6.54956 14.0095 5.99956C14.0095 5.44956 13.5595 4.99956 13.0095 4.99956C12.4595 4.99956 12.0095 5.44956 12.0095 5.99956ZM14.0095 18.9996C14.5595 18.9996 15.0095 18.5496 15.0095 17.9996C15.0095 17.4496 14.5595 16.9996 14.0095 16.9996C13.4595 16.9996 13.0095 17.4496 13.0095 17.9996C13.0095 18.5496 13.4595 18.9996 14.0095 18.9996ZM13.0095 15.9996C13.5595 15.9996 14.0095 15.5496 14.0095 14.9996C14.0095 14.4496 13.5595 13.9996 13.0095 13.9996C12.4595 13.9996 12.0095 14.4496 12.0095 14.9996C12.0095 15.5496 12.4595 15.9996 13.0095 15.9996ZM11.0095 17.9996C11.5595 17.9996 12.0095 17.5496 12.0095 16.9996C12.0095 16.4496 11.5595 15.9996 11.0095 15.9996C10.4595 15.9996 10.0095 16.4496 10.0095 16.9996C10.0095 17.5496 10.4595 17.9996 11.0095 17.9996Z" fill="#9CE550"/>
</svg>
