<svg width="64" height="64" viewBox="0 0 64 64" fill="none" xmlns="http://www.w3.org/2000/svg">
<g clip-path="url(#clip0_493_2220)">
<rect width="64" height="64" rx="16" fill="#1A2F19"/>
<path d="M12.464 51.672L11.512 39.856L12.24 39.688C13.528 43.552 16.496 50.552 22.768 50.608C26.352 50.608 28.48 48.48 28.536 45.792C28.536 43.048 26.744 41.424 22.264 39.856L18.904 38.512C14.424 36.832 11.736 34.312 11.792 30.056C11.904 25.464 16.216 22.048 21.704 22.104C26.912 22.16 29.208 25.464 30.328 21.768L31.112 21.712L31.84 32.688L31.056 32.8C29.936 28.936 26.464 23 21.592 22.944C18.456 22.888 16.496 25.016 16.496 27.536C16.496 30.056 18.4 31.792 22.376 33.192L25.68 34.536C30.776 36.44 33.24 38.904 33.128 42.88C33.016 48.48 28.032 51.56 23.048 51.504C17.224 51.392 14.704 48.144 13.304 51.616L12.464 51.672ZM34.2931 51V50.272C36.5331 50.272 38.2131 49.208 38.2131 45.344V24.848H34.2931V24.064C36.8131 23.784 38.1571 22.888 38.9411 19.416C40.1731 14.208 44.0931 9.392 49.8611 9.336C52.7171 9.28 55.5731 10.456 56.4691 12.808C57.1411 14.432 56.6931 16.56 54.6211 17.008C52.5491 17.344 50.9811 15.776 50.9811 13.2C50.9251 11.24 50.3651 10.232 49.0211 10.232C46.3331 10.232 44.2611 14.88 44.2611 21.376V22.608H51.3731L50.4771 24.848H44.2611V45.344C44.2611 49.208 46.2211 50.272 48.9651 50.272V51H34.2931Z" fill="#9CE550"/>
</g>
<defs>
<clipPath id="clip0_493_2220">
<rect width="64" height="64" rx="16" fill="white"/>
</clipPath>
</defs>
</svg>
