<svg width="24" height="24" viewBox="0 0 24 24" fill="none" xmlns="http://www.w3.org/2000/svg">
<g clip-path="url(#clip0_483_2415)">
<path d="M16.2857 0.724138V2.95345L12.8571 6.40172V-1H11.1429V6.40172L7.71429 2.95345V0.724138H6V14.5172C6.0024 15.9669 6.52331 17.3673 7.46756 18.4626C8.41181 19.5579 9.71636 20.275 11.1429 20.4828V24H12.8571V20.4828C14.2836 20.275 15.5882 19.5579 16.5324 18.4626C17.4767 17.3673 17.9976 15.9669 18 14.5172V0.724138H16.2857ZM11.1429 18.7405C10.1757 18.5403 9.30672 18.011 8.68222 17.2418C8.05773 16.4725 7.71589 15.5103 7.71429 14.5172V12.2879L11.1429 15.7362V18.7405ZM11.1429 13.2983L7.71429 9.85V5.39138L11.1429 8.83965V13.2983ZM12.8571 8.83965L16.2857 5.39138V9.85L12.8571 13.2983V8.83965ZM12.8571 18.7405V15.7362L16.2857 12.2879V14.5172C16.2841 15.5103 15.9423 16.4725 15.3178 17.2418C14.6933 18.011 13.8243 18.5403 12.8571 18.7405Z" fill="#9CE550"/>
</g>
<defs>
<clipPath id="clip0_483_2415">
<rect width="24" height="24" fill="white"/>
</clipPath>
</defs>
</svg>
