<svg width="24" height="24" viewBox="0 0 24 24" fill="none" xmlns="http://www.w3.org/2000/svg">
<path fill-rule="evenodd" clip-rule="evenodd" d="M12.0146 0.564453C12.3303 0.564453 12.5863 0.820389 12.5863 1.1361V3.11087C12.5863 3.30524 12.5531 3.49917 12.4873 3.68219C12.4215 3.86521 12.3233 4.03627 12.1952 4.18387C12.0668 4.33158 11.9101 4.4538 11.7315 4.53903C11.5525 4.62443 11.3571 4.66988 11.1573 4.66988H9.87605L9.86462 4.66976C9.16081 4.6557 8.46232 4.94095 7.90651 5.49682C7.34985 6.05354 6.97908 6.84121 6.88373 7.71491C6.84366 8.19291 6.89065 8.67469 7.02087 9.12858C7.15166 9.58435 7.36248 9.99868 7.63607 10.3463C7.90949 10.6937 8.23835 10.9655 8.5982 11.1492C8.72728 11.2151 9.01642 11.29 9.38913 11.3464C9.74303 11.3999 10.0949 11.4257 10.2999 11.4257C10.6156 11.4257 10.8716 11.6817 10.8715 11.9974C10.8715 12.3131 10.6155 12.569 10.2998 12.569C10.0261 12.569 9.61601 12.5369 9.21826 12.4768C8.83926 12.4195 8.38698 12.325 8.07835 12.1674C7.56284 11.9042 7.10724 11.523 6.73762 11.0534C6.36811 10.5839 6.09155 10.0351 5.92188 9.44384C5.75228 8.85259 5.69237 8.2287 5.74513 7.61132L5.74633 7.59886C5.86621 6.48444 6.34101 5.4456 7.09804 4.68846C7.85581 3.9306 8.84601 3.5076 9.88148 3.5266H11.1573C11.1826 3.5266 11.2102 3.52098 11.2392 3.50714C11.2686 3.49312 11.3009 3.46989 11.3319 3.43425C11.363 3.39848 11.3911 3.35181 11.4114 3.29525C11.4318 3.23867 11.443 3.17582 11.443 3.11087V1.1361C11.443 0.820389 11.6989 0.564453 12.0146 0.564453Z" fill="#9CE550"/>
<path fill-rule="evenodd" clip-rule="evenodd" d="M6.35179 11.8293C6.86775 11.5658 7.43002 11.4278 8.00161 11.4277C8.31732 11.4277 8.57331 11.6836 8.57331 11.9993C8.57336 12.315 8.31744 12.571 8.00172 12.571C7.61575 12.5711 7.23109 12.664 6.87164 12.8475C6.51179 13.0312 6.18292 13.303 5.90951 13.6504C5.63592 13.998 5.4251 14.4123 5.29431 14.8681C5.16408 15.322 5.1171 15.8038 5.15717 16.2818C5.25252 17.1555 5.62329 17.9431 6.17995 18.4999C6.41398 18.734 6.83105 18.9518 7.3373 19.1082C7.83457 19.2619 8.34528 19.3342 8.7097 19.3269L8.72113 19.3268H11.1456C11.3454 19.3268 11.5408 19.3723 11.7199 19.4577C11.8985 19.5429 12.0552 19.6651 12.1835 19.8128C12.3117 19.9604 12.4098 20.1315 12.4756 20.3145C12.5415 20.4975 12.5746 20.6914 12.5746 20.8859V22.8606C12.5746 23.1763 12.3187 23.4322 12.003 23.4322C11.6873 23.4322 11.4313 23.1763 11.4313 22.8606V20.8859C11.4313 20.8209 11.4201 20.758 11.3998 20.7014C11.3795 20.6449 11.3513 20.5982 11.3202 20.5624C11.2893 20.5268 11.257 20.5035 11.2276 20.4895C11.1986 20.4757 11.171 20.4701 11.1456 20.4701H8.72656C8.22123 20.4794 7.59071 20.3832 6.99963 20.2005C6.41524 20.0199 5.79495 19.7318 5.37148 19.3082C4.61445 18.5511 4.13964 17.5122 4.01977 16.3978L4.01857 16.3854C3.96581 15.768 4.02571 15.1441 4.19532 14.5528C4.36498 13.9616 4.64155 13.4128 5.01106 12.9433C5.38068 12.4737 5.83628 12.0924 6.35179 11.8293Z" fill="#9CE550"/>
<path fill-rule="evenodd" clip-rule="evenodd" d="M16.0056 0.564453C16.3213 0.564453 16.5772 0.820389 16.5772 1.1361V4.09812C16.5773 4.68154 16.4776 5.26084 16.2825 5.80333C16.0873 6.34582 15.7996 6.84349 15.4323 7.26617C15.333 7.38038 15.2188 7.49928 15.0946 7.61658C16.0438 7.67163 17.0682 7.83809 17.9358 8.28666C18.5257 8.59163 19.0523 9.0314 19.4278 9.65729C19.8028 10.2823 20.0054 11.0566 20.0054 11.9973C20.0054 12.9353 19.809 13.7077 19.444 14.3318C19.0781 14.9576 18.5633 15.3989 17.9836 15.7055C17.1051 16.1702 16.0612 16.3331 15.1001 16.3829C15.2165 16.494 15.327 16.6101 15.4308 16.7296C16.1705 17.5816 16.5749 18.7217 16.5747 19.8964V22.8585C16.5747 23.1742 16.3188 23.4302 16.0031 23.4302C15.6873 23.4302 15.4314 23.1742 15.4314 22.8585V19.8964C15.4316 18.977 15.1138 18.1084 14.5675 17.4791C13.9897 16.8137 13.2618 16.4027 12.5737 16.4023C12.2581 16.4022 12.0024 16.1462 12.0024 15.8305C12.0025 15.5149 12.2584 15.259 12.5741 15.259H14.2873C15.418 15.259 16.5809 15.154 17.4491 14.6949C17.8708 14.4718 18.2147 14.1692 18.4571 13.7547C18.7005 13.3385 18.8621 12.7742 18.8621 11.9973C18.8621 11.2231 18.6966 10.6608 18.4475 10.2455C18.1988 9.83107 17.8452 9.52684 17.4107 9.30224C16.5174 8.84036 15.3258 8.73557 14.1834 8.73557H12.4701C12.1544 8.73552 11.8984 8.47954 11.8984 8.16387C11.8985 7.84816 12.1544 7.59229 12.4701 7.59229H12.4716C12.8346 7.59217 13.1965 7.51003 13.5375 7.34751C13.8624 7.19265 14.2847 6.84384 14.5693 6.51634C14.8393 6.20548 15.0571 5.83226 15.2067 5.41633C15.3564 5.00034 15.434 4.55229 15.4339 4.09835V1.1361C15.4339 0.820389 15.6899 0.564453 16.0056 0.564453Z" fill="#9CE550"/>
<path fill-rule="evenodd" clip-rule="evenodd" d="M7.42969 11.9994C7.42969 11.6837 7.68573 11.4277 8.00144 11.4277H15.4327C15.7484 11.4277 16.0043 11.6837 16.0043 11.9994C16.0043 12.3151 15.7484 12.571 15.4327 12.571H8.00156C7.68584 12.571 7.42969 12.3151 7.42969 11.9994Z" fill="#9CE550"/>
<path fill-rule="evenodd" clip-rule="evenodd" d="M10.8594 8.16539C10.8594 7.84967 11.1153 7.59375 11.431 7.59375H12.5743C12.89 7.59375 13.1459 7.84967 13.1459 8.16539C13.1459 8.48105 12.89 8.73704 12.5743 8.73704H11.431C11.1153 8.73704 10.8594 8.48105 10.8594 8.16539Z" fill="#9CE550"/>
<path fill-rule="evenodd" clip-rule="evenodd" d="M8 15.8334C8 15.5177 8.25592 15.2617 8.57164 15.2617L12.5732 15.2618C12.8889 15.2618 13.1448 15.5177 13.1448 15.8334C13.1448 16.1491 12.8886 16.4051 12.5729 16.4051L8.57164 16.405C8.25592 16.405 8 16.1491 8 15.8334Z" fill="#9CE550"/>
</svg>
