<svg width="24" height="24" viewBox="0 0 24 24" fill="none" xmlns="http://www.w3.org/2000/svg">
<path d="M14.4079 5.50486C14.4079 5.07415 14.2368 4.66108 13.9322 4.35652C13.6276 4.05196 13.2146 3.88086 12.7839 3.88086H11.1599C10.7292 3.88086 10.3161 4.05196 10.0115 4.35652C9.70697 4.66108 9.53587 5.07415 9.53587 5.50486V6.31686C9.53587 7.12886 9.12987 7.94086 8.39907 8.34685L6.36907 9.64605C5.32447 10.3125 4.52625 11.302 4.09594 12.464C3.66564 13.626 3.62682 14.8967 3.9854 16.0828C4.34398 17.2689 5.08031 18.3053 6.08229 19.0342C7.08427 19.7632 8.29701 20.1448 9.53587 20.1208H14.4079C15.6165 20.1005 16.7873 19.6954 17.7499 18.9643C18.7126 18.2332 19.4172 17.2142 19.7612 16.0553C20.1053 14.8965 20.0709 13.6581 19.6631 12.5201C19.2552 11.3821 18.4952 10.4038 17.4935 9.72725L15.4635 8.42805C15.1389 8.17926 14.8752 7.8599 14.6923 7.49413C14.5094 7.12836 14.4122 6.72578 14.4079 6.31686V5.50486Z" stroke="#9CE550" stroke-width="1.9438" stroke-linecap="round" stroke-linejoin="round"/>
<path d="M9.53806 6.31836C9.53806 9.56636 7.91406 9.56636 7.91406 13.6264C7.91406 17.1991 9.70046 20.1223 11.9741 20.1223C14.2477 20.1223 16.0341 17.1991 16.0341 13.6264C16.0341 9.56636 14.4101 9.56636 14.4101 6.31836" stroke="#9CE550" stroke-width="1.9438" stroke-linecap="round" stroke-linejoin="round"/>
</svg>
