<svg width="24" height="24" viewBox="0 0 24 24" fill="none" xmlns="http://www.w3.org/2000/svg">
<path d="M15.7143 4C16.5443 4 17.3343 4.22 18.0043 4.66C19.1443 5.4 19.8443 6.53 20.0043 7.84C20.0615 8.47455 19.9793 9.11392 19.7633 9.71333C19.5474 10.3127 19.203 10.8577 18.7543 11.31C18.0543 12 17.1643 12.44 16.1843 12.54C14.2743 12.74 12.5943 13.5 11.3443 14.77C11.1931 14.9172 10.9904 14.9996 10.7793 14.9996C10.5683 14.9996 10.3656 14.9172 10.2143 14.77L9.22433 13.78C9.15422 13.7108 9.09864 13.6282 9.06086 13.5372C9.02308 13.4462 9.00386 13.3485 9.00433 13.25C9.00433 13 9.11433 12.78 9.32433 12.57C10.5343 11.35 11.2743 9.73 11.4543 7.87C11.5843 6.54 12.2943 5.4 13.4543 4.65C14.1143 4.22 14.8943 4 15.7143 4ZM15.7143 2C14.5443 2 13.3743 2.32 12.3643 2.97C10.6043 4.1 9.63433 5.86 9.46433 7.68C9.33433 9 8.83433 10.23 7.91433 11.15L7.88433 11.18C6.72433 12.34 6.72433 14.11 7.81433 15.19L8.80433 16.18C9.35433 16.73 10.0643 17 10.7743 17C11.4843 17 12.2043 16.73 12.7543 16.18C13.7243 15.21 15.0043 14.68 16.3943 14.53C17.7643 14.38 19.1043 13.78 20.1643 12.73C20.8294 12.0659 21.3366 11.2608 21.6485 10.3742C21.9604 9.48759 22.069 8.54223 21.9663 7.60801C21.8635 6.67379 21.5521 5.77462 21.055 4.977C20.5579 4.17939 19.8878 3.50373 19.0943 3C18.0843 2.33 16.9043 2 15.7143 2ZM6.26433 19.86C6.53433 20.42 6.44433 21.1 5.97433 21.56C5.77077 21.7666 5.51134 21.9093 5.22784 21.9707C4.94434 22.032 4.64911 22.0092 4.37837 21.9052C4.10762 21.8011 3.87313 21.6203 3.70366 21.3849C3.53419 21.1495 3.43711 20.8698 3.42433 20.58C3.13456 20.5672 2.85482 20.4701 2.61943 20.3007C2.38404 20.1312 2.20323 19.8967 2.09917 19.626C1.99512 19.3552 1.97236 19.06 2.03367 18.7765C2.09498 18.493 2.2377 18.2336 2.44433 18.03C2.90433 17.57 3.59433 17.47 4.14433 17.74L6.62433 15.31C6.76433 15.5 6.92433 15.72 7.10433 15.9L8.09433 16.89C8.30433 17.09 8.50433 17.26 8.76433 17.41L6.26433 19.86Z" fill="#9CE550"/>
</svg>
