<svg width="24" height="24" viewBox="0 0 24 24" fill="none" xmlns="http://www.w3.org/2000/svg">
<path fill-rule="evenodd" clip-rule="evenodd" d="M21.8697 2.84406L21.3376 2.75703L21.198 2.22141L22 2L21.8697 2.84406ZM14.7467 10.5137C14.2878 10.8044 14.2878 10.8043 14.2877 10.8042L14.287 10.803L14.2854 10.8003L14.2802 10.7915L14.2618 10.76C14.2463 10.733 14.2241 10.6943 14.1967 10.645C14.1419 10.5466 14.0659 10.4058 13.9788 10.233C13.8053 9.88883 13.5842 9.41065 13.4001 8.88255C13.2176 8.35917 13.0617 7.75965 13.0376 7.17948C13.0136 6.6017 13.1187 5.97451 13.5361 5.48329C13.9118 5.0411 14.62 4.63511 15.3637 4.28303C16.135 3.91787 17.0422 3.56742 17.9017 3.26395C18.763 2.9598 19.5863 2.69945 20.1935 2.51529C20.4974 2.42314 20.7477 2.34988 20.9224 2.29958C21.0098 2.27442 21.0782 2.25499 21.1251 2.2418L21.1788 2.22674L21.198 2.22141C21.1981 2.22139 21.198 2.22141 21.3376 2.75703C21.8697 2.84406 21.8697 2.84398 21.8697 2.84406L21.8665 2.86476L21.8573 2.92339C21.8491 2.97461 21.8372 3.04959 21.8217 3.14525C21.7906 3.33655 21.7453 3.61065 21.688 3.94285C21.5735 4.60683 21.4108 5.50492 21.2186 6.43878C21.0267 7.37064 20.8035 8.34742 20.5671 9.16543C20.4491 9.57402 20.3252 9.95216 20.197 10.2694C20.074 10.5739 19.9285 10.8705 19.7519 11.0783C19.3735 11.5237 18.7844 11.6628 18.2704 11.6982C17.7334 11.7352 17.1392 11.6679 16.6037 11.5711C16.0633 11.4732 15.5569 11.3404 15.1876 11.2327C15.0023 11.1788 14.85 11.1307 14.7433 11.0959C14.6899 11.0785 14.6479 11.0644 14.6188 11.0545L14.585 11.0428L14.5757 11.0396L14.573 11.0387L14.5722 11.0384C14.5721 11.0384 14.5717 11.0382 14.7467 10.5137ZM14.7467 10.5137L14.2877 10.8042L14.3891 10.9736L14.5722 11.0384L14.7467 10.5137ZM15.1084 10.0515C15.2031 10.082 15.3301 10.1216 15.4811 10.1656C15.8285 10.2668 16.2973 10.3895 16.7903 10.4787C17.2882 10.5688 17.7856 10.62 18.1985 10.5916C18.6342 10.5616 18.8531 10.4514 18.9408 10.3482C18.9972 10.2818 19.0887 10.1242 19.202 9.84358C19.3102 9.57568 19.4219 9.23796 19.5343 8.84928C19.7587 8.07264 19.975 7.12885 20.1644 6.20881C20.3535 5.29075 20.5138 4.40542 20.627 3.74901C20.6403 3.67239 20.6528 3.59891 20.6647 3.5289C20.6112 3.54494 20.5557 3.5617 20.4981 3.57916C19.9006 3.76036 19.0933 4.01574 18.2514 4.31303C17.4075 4.61099 16.5385 4.94765 15.8139 5.2907C15.0616 5.64677 14.554 5.97002 14.3472 6.21341C14.182 6.40778 14.0965 6.70657 14.1142 7.13207C14.1318 7.55524 14.2499 8.03637 14.4144 8.50796C14.5771 8.97477 14.7758 9.40582 14.9353 9.72219C15.0026 9.85567 15.0623 9.96747 15.1084 10.0515ZM4.80204 4.24028L4.66244 4.77591L4.13033 4.86292L4 4.01887L4.80204 4.24028ZM10.0183 11.0791C10.4771 11.3698 10.4772 11.3697 10.4772 11.3695L10.4779 11.3685L10.4793 11.3661L10.4837 11.3587L10.499 11.3324C10.512 11.31 10.5303 11.278 10.5528 11.2374C10.5979 11.1564 10.6604 11.0407 10.7319 10.8988C10.8742 10.6166 11.056 10.2236 11.2076 9.78868C11.3575 9.35852 11.4878 8.8602 11.508 8.37409C11.5281 7.8903 11.4409 7.3499 11.0781 6.9229C10.7569 6.54492 10.1626 6.20725 9.55914 5.92155C8.9279 5.6227 8.18711 5.33667 7.48727 5.08951C6.78544 4.84174 6.11503 4.62973 5.62069 4.47978C5.37327 4.40475 5.16939 4.34508 5.02699 4.3041C4.95582 4.28359 4.9 4.26773 4.86174 4.25697L4.81783 4.24468L4.80204 4.24028C4.80194 4.24026 4.80204 4.24028 4.66244 4.77591C4.13033 4.86292 4.13032 4.86286 4.13033 4.86292L4.13298 4.87994L4.1405 4.92775C4.1471 4.9695 4.15684 5.03062 4.16948 5.10847C4.19475 5.26425 4.23164 5.48734 4.27826 5.75768C4.37143 6.29792 4.50382 7.02892 4.66034 7.78926C4.81654 8.54766 4.99854 9.34443 5.19175 10.0131C5.2882 10.3469 5.39003 10.658 5.49606 10.9204C5.59687 11.1701 5.7202 11.4242 5.87499 11.6063C6.20975 12.0003 6.72305 12.116 7.14811 12.1453C7.59611 12.1762 8.08808 12.12 8.52677 12.0406C8.97035 11.9603 9.38533 11.8514 9.68754 11.7634C9.83926 11.7192 9.96405 11.6798 10.0515 11.6512C10.0953 11.637 10.1299 11.6253 10.1539 11.6172L10.182 11.6075L10.1898 11.6048L10.1929 11.6037C10.1929 11.6037 10.1933 11.6035 10.0183 11.0791ZM10.0183 11.0791L10.4772 11.3695L10.3759 11.539L10.1929 11.6037L10.0183 11.0791ZM9.65602 10.6165C9.68969 10.5543 9.73043 10.4772 9.77541 10.388C9.9037 10.1336 10.063 9.78768 10.1933 9.41403C10.3253 9.03572 10.4177 8.65585 10.4314 8.32667C10.4452 7.99517 10.3775 7.78316 10.2669 7.65301C10.1147 7.47389 9.721 7.21897 9.10887 6.92916C8.52445 6.65255 7.82192 6.38022 7.1376 6.1386C6.46492 5.90109 5.81934 5.69651 5.33685 5.54995C5.33766 5.55455 5.33847 5.55921 5.33927 5.56381C5.43114 6.09657 5.56126 6.81476 5.71454 7.55935C5.86826 8.30588 6.04337 9.06966 6.22462 9.6969C6.31535 10.0109 6.405 10.2816 6.49105 10.4946C6.58227 10.7204 6.6515 10.8354 6.68609 10.8762C6.73006 10.9279 6.87332 11.0148 7.22009 11.0387C7.54396 11.061 7.93911 11.0209 8.34018 10.9483C8.7363 10.8766 9.11378 10.7778 9.39406 10.6962C9.49643 10.6664 9.58511 10.639 9.65602 10.6165ZM8.47585 15.9036C8.33927 15.9117 8.27213 15.9317 8.25554 15.9394C8.01125 16.053 7.26976 16.319 6.62973 16.5439C6.30091 16.6594 5.98572 16.7687 5.75285 16.849C5.74784 16.8507 5.74283 16.8524 5.73787 16.8541V19.8503C5.83265 19.8464 5.93432 19.8423 6.03868 19.8385C6.48469 19.8218 7.01562 19.8055 7.24557 19.8149C8.21119 19.8546 8.93603 20.0898 9.60753 20.3077L9.6218 20.3124C10.2512 20.5166 10.8341 20.7042 11.5978 20.7632C11.8136 20.7799 12.0227 20.8013 12.2183 20.8214L12.2209 20.8217C12.9724 20.8987 13.4669 20.9381 13.8497 20.7949C14.1481 20.6834 15.2388 20.163 16.3392 19.5933C16.8831 19.3117 17.4166 19.0247 17.841 18.7789C18.0535 18.6559 18.2338 18.546 18.3724 18.4543C18.4417 18.4084 18.4969 18.3695 18.5388 18.3376C18.5594 18.3218 18.5752 18.3091 18.5866 18.2993C18.5984 18.2891 18.6027 18.2846 18.6019 18.2854C18.6555 18.2294 18.7128 18.0346 18.6205 17.8508C18.5833 17.7768 18.5217 17.7085 18.4175 17.6621C18.3097 17.6142 18.1264 17.5771 17.8352 17.6263C17.1789 17.7371 16.3953 18.0621 15.6125 18.39L15.6012 18.3947C15.2166 18.5557 14.8309 18.7173 14.489 18.8346C14.1604 18.9473 13.7953 19.048 13.4777 19.0284C13.041 19.0015 12.2754 18.8842 11.6441 18.7793C11.323 18.7259 11.0277 18.6741 10.8127 18.6356C10.7052 18.6165 10.6176 18.6005 10.5568 18.5895L10.4866 18.5765L10.4621 18.572L10.5639 17.4717L13.027 17.5021C13.0282 17.502 13.0298 17.5019 13.0318 17.5017C13.0444 17.5005 13.0738 17.4969 13.1171 17.4854C13.2023 17.4628 13.3482 17.4083 13.5318 17.2746C13.5887 17.233 13.663 17.1565 13.7322 17.0537C13.761 17.0112 13.7855 16.969 13.8058 16.9289C13.4739 16.9096 13.1563 16.8526 12.9137 16.7986C12.7625 16.7649 12.6352 16.7312 12.5449 16.7056C12.4996 16.6928 12.4633 16.682 12.4377 16.6742C12.4308 16.672 12.4247 16.6701 12.4194 16.6684L9.4037 15.9779C9.39745 15.9768 9.38786 15.975 9.37525 15.9729C9.34923 15.9684 9.31055 15.9621 9.26248 15.9549C9.16572 15.9405 9.03377 15.9235 8.89115 15.9122C8.74692 15.9008 8.60176 15.8962 8.47585 15.9036ZM9.50979 15.4341L9.60774 14.8888L9.61733 14.8906L12.6978 15.596L12.7207 15.6034L12.7249 15.6048L12.7454 15.6112C12.7643 15.617 12.7931 15.6256 12.8305 15.6362C12.9053 15.6573 13.0131 15.686 13.1416 15.7146C13.4035 15.7729 13.7306 15.8266 14.0336 15.8266C14.3371 15.8266 14.6666 15.9427 14.8444 16.275C14.9963 16.5589 14.9589 16.866 14.9055 17.0687C14.8607 17.2385 14.7842 17.4135 14.686 17.5782C14.85 17.5119 15.0237 17.4392 15.2064 17.3627L15.2401 17.3485C15.9822 17.0378 16.8722 16.665 17.6607 16.5319C18.5765 16.3773 19.2636 16.7156 19.5779 17.3417C19.8546 17.8931 19.7929 18.6206 19.3703 19.063C19.2644 19.1738 19.1068 19.2868 18.9553 19.3871C18.7919 19.4953 18.5912 19.6171 18.3693 19.7456C17.9246 20.003 17.3747 20.2986 16.8234 20.5841C15.7334 21.1484 14.5859 21.6997 14.2176 21.8374C13.5785 22.0764 12.8391 22.0001 12.1823 21.9323C12.1594 21.93 12.1367 21.9276 12.114 21.9253C11.9158 21.905 11.7186 21.8848 11.5171 21.8692C10.6227 21.8 9.93705 21.5776 9.31092 21.3744L9.29783 21.3702C8.62391 21.1515 8.01739 20.9566 7.20258 20.9232C7.0237 20.9158 6.54213 20.9294 6.07785 20.9468C5.85172 20.9553 5.63809 20.9642 5.48087 20.9712C5.40231 20.9746 5.33798 20.9775 5.29326 20.9795L5.22408 20.9828L4.66029 21.0094V16.0542L5.13302 15.8927C5.1994 15.87 5.29477 15.8372 5.41056 15.7973C5.64218 15.7175 5.95527 15.6089 6.28151 15.4943C6.95161 15.2588 7.62736 15.0145 7.81168 14.9288C8.00931 14.8368 8.23388 14.8069 8.41421 14.7963C8.60532 14.785 8.80241 14.7929 8.97364 14.8064C9.14654 14.82 9.30327 14.8404 9.41631 14.8572C9.47315 14.8656 9.5197 14.8733 9.55262 14.8789C9.56906 14.8818 9.58215 14.8841 9.59147 14.8857L9.60262 14.8878L9.60596 14.8884L9.60704 14.8886L9.60774 14.8888C9.60785 14.8888 9.60774 14.8888 9.50979 15.4341Z" fill="#9CE550"/>
<path fill-rule="evenodd" clip-rule="evenodd" d="M17.8337 6.1284C18.0334 6.32008 18.0565 6.65677 17.8854 6.88044C16.4662 8.7348 14.6992 11.4533 13.9191 13.6627C13.8224 13.9366 13.5457 14.0708 13.3012 13.9625C13.0566 13.8542 12.9368 13.5443 13.0335 13.2704C13.8731 10.8924 15.7243 8.06517 17.1622 6.18627C17.3334 5.96259 17.634 5.93673 17.8337 6.1284Z" fill="#9CE550"/>
<path fill-rule="evenodd" clip-rule="evenodd" d="M7.19045 8.10949C6.97361 8.28383 6.93641 8.60447 7.10736 8.82562C8.22867 10.2762 9.45212 12.1332 10.0333 13.6731C10.1324 13.9359 10.4218 14.067 10.6795 13.9658C10.9372 13.8647 11.0657 13.5696 10.9665 13.3068C10.3306 11.6218 9.03234 9.66861 7.89263 8.19424C7.72168 7.97309 7.4073 7.93515 7.19045 8.10949Z" fill="#9CE550"/>
<path d="M2 15H5V22H2V15Z" fill="#9CE550"/>
</svg>
