<svg width="24" height="24" viewBox="0 0 24 24" fill="none" xmlns="http://www.w3.org/2000/svg">
<path fill-rule="evenodd" clip-rule="evenodd" d="M2.17472 6.93768C1.91943 6.48654 2.0499 5.97755 2.46597 5.56022C2.66855 5.35702 2.90372 5.22108 3.1066 5.16906C3.31432 5.11579 3.41927 5.16282 3.4616 5.20023C4.40042 6.02974 5.00814 6.24462 5.53769 6.29566C5.68836 6.31016 5.80218 6.31417 5.89495 6.31743C6.12608 6.32551 6.22633 6.32906 6.4389 6.47927L7 5.51479C6.52538 5.17937 6.09926 5.16923 5.80598 5.16224C5.73961 5.16064 5.68005 5.15927 5.62823 5.15428C5.35132 5.12759 4.93257 5.03152 4.11173 4.30627C3.73526 3.97362 3.26421 3.95228 2.87102 4.05312C2.47298 4.1552 2.08231 4.39592 1.76638 4.71283C1.14544 5.33559 0.668255 6.44048 1.29278 7.54406C1.61541 8.11412 1.9736 8.60358 2.30387 9C2.35125 8.90198 2.41214 8.81221 2.48695 8.7327C2.67565 8.53225 2.92941 8.42232 3.2161 8.39677C2.8823 8.01518 2.50535 7.52189 2.17472 6.93768Z" fill="#9CE550"/>
<path fill-rule="evenodd" clip-rule="evenodd" d="M5.56332 11.6007C5.49785 11.3475 5.2864 11.0042 4.88184 10.685C4.47728 10.3658 4.04717 10.2029 3.73191 10.1557C3.5571 10.1296 3.46494 10.1417 3.42517 10.152C3.41339 10.1842 3.40038 10.2589 3.43669 10.3993C3.50219 10.6525 3.71363 10.9958 4.1182 11.315C4.52276 11.6342 4.95288 11.7971 5.26813 11.8442C5.44289 11.8704 5.53509 11.8582 5.57486 11.8481C5.58661 11.8157 5.59966 11.7412 5.56332 11.6007ZM5.56435 11.8681C5.56435 11.8681 5.56518 11.8663 5.56799 11.8632C5.56593 11.8667 5.56435 11.8681 5.56435 11.8681ZM5.59341 11.8422C5.59726 11.8398 5.59946 11.8391 5.59946 11.8391C5.59946 11.8391 5.59774 11.8405 5.59341 11.8422ZM3.43568 10.1319C3.43568 10.1319 3.43486 10.1337 3.43204 10.1368C3.43407 10.1334 3.43568 10.1319 3.43568 10.1319ZM3.40658 10.1578C3.40278 10.1602 3.40053 10.1609 3.40053 10.1609C3.40053 10.1609 3.40231 10.1595 3.40658 10.1578ZM6.59014 12.6492C7.3474 12.0244 7.02541 10.7796 5.87109 9.86881C4.71669 8.95804 3.16706 8.72611 2.40985 9.35086C1.65262 9.9756 1.97457 11.2204 3.12894 12.1312C4.28328 13.042 5.83296 13.2739 6.59014 12.6492Z" fill="#9CE550"/>
<path fill-rule="evenodd" clip-rule="evenodd" d="M21.8253 6.92314C22.0806 6.47424 21.9501 5.96777 21.534 5.5525C21.3315 5.35031 21.0963 5.21504 20.8934 5.16328C20.6857 5.11026 20.5807 5.15706 20.5384 5.19429C19.5996 6.0197 18.9919 6.23351 18.4623 6.2843C18.3116 6.29873 18.1978 6.30272 18.105 6.30597C17.8739 6.314 17.7737 6.31754 17.5611 6.467L17 5.50729C17.4746 5.17354 17.9007 5.16345 18.194 5.15649C18.2604 5.1549 18.32 5.15353 18.3718 5.14857C18.6487 5.12201 19.0674 5.02641 19.8883 4.30475C20.2647 3.97376 20.7358 3.95252 21.129 4.05285C21.527 4.15443 21.9177 4.39396 22.2336 4.7093C22.8545 5.32899 23.3317 6.42841 22.7072 7.52652C22.3778 8.10573 22.0113 8.60126 21.6753 9C21.6264 8.89283 21.5617 8.79502 21.4806 8.70928C21.2985 8.51678 21.0558 8.40819 20.7813 8.37798C21.1157 7.99788 21.4938 7.506 21.8253 6.92314Z" fill="#9CE550"/>
<path fill-rule="evenodd" clip-rule="evenodd" d="M18.4367 11.6007C18.5022 11.3475 18.7136 11.0042 19.1182 10.685C19.5227 10.3658 19.9528 10.2029 20.2681 10.1557C20.4429 10.1296 20.5351 10.1417 20.5748 10.152C20.5866 10.1842 20.5996 10.2589 20.5633 10.3993C20.4978 10.6525 20.2864 10.9958 19.8818 11.315C19.4772 11.6342 19.0471 11.7971 18.7319 11.8442C18.5571 11.8704 18.4649 11.8582 18.4251 11.8481C18.4134 11.8157 18.4003 11.7412 18.4367 11.6007ZM18.4356 11.8681C18.4356 11.8681 18.4348 11.8663 18.432 11.8632C18.4341 11.8667 18.4356 11.8681 18.4356 11.8681ZM18.4066 11.8422C18.4027 11.8398 18.4005 11.8391 18.4005 11.8391C18.4005 11.8391 18.4023 11.8405 18.4066 11.8422ZM20.5643 10.1319C20.5643 10.1319 20.5651 10.1337 20.568 10.1368C20.566 10.1334 20.5643 10.1319 20.5643 10.1319ZM20.5934 10.1578C20.5972 10.1602 20.5995 10.1609 20.5995 10.1609C20.5995 10.1609 20.5977 10.1595 20.5934 10.1578ZM17.4099 12.6492C16.6526 12.0244 16.9746 10.7796 18.1289 9.86881C19.2833 8.95804 20.8329 8.72611 21.5902 9.35086C22.3474 9.9756 22.0254 11.2204 20.871 12.1312C19.7167 13.042 18.167 13.2739 17.4099 12.6492Z" fill="#9CE550"/>
<path fill-rule="evenodd" clip-rule="evenodd" d="M8.66345 9.5623C8.93414 10.0916 9.27845 10.5237 9.53276 10.7509C9.99845 11.167 10.2137 11.8355 10.3407 12.4858C10.4735 13.1658 10.5333 13.9716 10.5817 14.7789C10.5913 14.9382 10.6003 15.0977 10.6095 15.2568C10.6471 15.9173 10.6845 16.5727 10.7519 17.1896C10.8117 17.7369 10.8929 18.2285 11.009 18.6426C11.0899 18.5803 11.1776 18.5139 11.2529 18.4624C11.335 18.4063 11.4351 18.3434 11.5458 18.2929C11.6508 18.245 11.8123 18.1861 12.0063 18.1861C12.2043 18.1861 12.3671 18.2471 12.4756 18.3C12.5875 18.3545 12.685 18.4219 12.7623 18.4808C12.7873 18.4999 12.813 18.5204 12.8389 18.5416C12.9146 18.1698 12.9568 17.7431 12.9786 17.2715C13.0015 16.7759 13.0013 16.2635 13.0011 15.7368C13.0011 15.4744 13.001 15.2085 13.0038 14.9394C13.0119 14.1491 13.045 13.3446 13.1913 12.6339C13.3361 11.9305 13.6061 11.242 14.1558 10.7509C14.529 10.4176 14.9455 9.9278 15.2605 9.38457C15.5788 8.83579 15.7658 8.28085 15.749 7.80607C15.7333 7.36118 15.5426 6.97634 15.0464 6.67901C14.5148 6.36045 13.5782 6.11112 12.0063 6.11112C10.4434 6.11112 9.51783 6.38028 8.98939 6.71967C8.48789 7.04179 8.28164 7.4669 8.25339 7.95335C8.22382 8.46146 8.3927 9.03291 8.66345 9.5623ZM8.25732 5.81906C9.08464 5.28772 10.3111 5 12.0063 5C13.6926 5 14.9183 5.26222 15.7452 5.75773C16.6074 6.27445 16.9713 7.00617 16.9983 7.77118C17.0243 8.5064 16.7422 9.25485 16.3715 9.8938C15.9976 10.5384 15.5053 11.1207 15.0419 11.5346C14.7549 11.791 14.548 12.2165 14.4209 12.8338C14.2954 13.4437 14.2618 14.1663 14.2537 14.9495C14.2512 15.1954 14.2512 15.4491 14.2513 15.7055C14.2514 16.2461 14.2515 16.7991 14.2275 17.3171C14.1921 18.0828 14.103 18.8451 13.8565 19.4833C13.8099 19.6037 13.7126 19.7851 13.4968 19.9023C13.2545 20.0339 13.0062 20.0098 12.8441 19.9612C12.697 19.9171 12.5795 19.8428 12.5048 19.7906C12.4238 19.7338 12.3475 19.6699 12.2838 19.6146C12.2323 19.5697 12.1883 19.5303 12.1487 19.4947C12.0911 19.4431 12.0425 19.3995 11.9924 19.3588C11.9275 19.4044 11.8695 19.4496 11.8016 19.5026C11.7493 19.5434 11.6911 19.5889 11.6192 19.6426C11.4965 19.7345 11.2689 19.9028 11.0114 19.9687C10.8596 20.0075 10.6303 20.0285 10.3981 19.9192C10.172 19.8129 10.057 19.6362 9.99858 19.4981C9.73258 18.8683 9.59439 18.0901 9.50776 17.297C9.43733 16.6519 9.39808 15.9639 9.36033 15.3016C9.35145 15.1453 9.34264 14.9905 9.33345 14.838C9.28489 14.0265 9.22758 13.2824 9.10914 12.6759C8.98482 12.0395 8.81464 11.6847 8.6467 11.5346C8.26739 11.1959 7.84489 10.6466 7.52551 10.0221C7.20613 9.39774 6.96157 8.64318 7.00501 7.89596C7.04976 7.12712 7.40301 6.36767 8.25732 5.81906ZM11.8754 19.2747C11.8734 19.2738 11.8731 19.2735 11.8746 19.2743L11.8754 19.2747Z" fill="#9CE550"/>
</svg>
