<svg width="24" height="24" viewBox="0 0 24 24" fill="none" xmlns="http://www.w3.org/2000/svg">
<path fill-rule="evenodd" clip-rule="evenodd" d="M11.1172 4.34587L11.1138 4.34888C11.1115 4.30788 11.1092 4.26444 11.1068 4.21832L11.1021 4.13026C11.0823 3.76114 11.0516 3.20257 10.8275 2.76124C10.7058 2.52155 10.517 2.29291 10.2299 2.14836C9.94615 2.00546 9.62159 1.97254 9.27524 2.02084C8.96817 2.06366 8.69579 2.18891 8.48078 2.39982C8.27001 2.60658 8.14485 2.86555 8.07601 3.12997C7.94231 3.64312 7.99907 4.25624 8.13719 4.84652C8.41646 6.03976 9.09564 7.41621 9.85933 8.3525C10.1532 8.71273 10.2433 9.25556 10.2433 9.48938V10.7207L11.3465 11V10.2655C11.8334 10.0823 12.1622 9.99847 12.4706 9.99204C12.7696 9.98584 13.0886 10.0524 13.5529 10.2466V11L14.6561 10.7207V9.48938C14.6561 9.25556 14.7463 8.71273 15.0401 8.3525C15.7987 7.42247 16.5117 6.05222 16.827 4.8625C16.9826 4.27527 17.0606 3.66241 16.9438 3.1474C16.8835 2.8814 16.7655 2.61756 16.5565 2.40596C16.343 2.18986 16.0693 2.06373 15.7617 2.02084C15.4154 1.97254 15.0909 2.00546 14.8071 2.14836C14.52 2.29291 14.3312 2.52155 14.2095 2.76124C13.9854 3.20257 13.9548 3.76114 13.9349 4.13026L13.9302 4.21831C13.9278 4.26444 13.9255 4.30788 13.9232 4.34888L13.9199 4.34587C13.6565 4.10832 13.308 4.02742 13.0731 3.99256C12.8932 3.96587 12.7185 3.95842 12.5873 3.95635V3.95556H12.5804C12.562 3.95555 12.5413 3.95555 12.5185 3.95566C12.4958 3.95555 12.4752 3.95555 12.4568 3.95556H12.4497V3.95635C12.3186 3.95842 12.1438 3.96587 11.9639 3.99256C11.729 4.02742 11.3805 4.10832 11.1172 4.34587ZM11.851 5.17999C11.851 5.17999 11.8559 5.17592 11.867 5.16977C11.8749 5.1653 11.8852 5.16022 11.8981 5.15475V7.64852H13.0013V5.11369C13.0444 5.12291 13.0821 5.13346 13.114 5.14497C13.1393 5.15419 13.1576 5.16279 13.1701 5.16977C13.1811 5.17597 13.1861 5.18011 13.1861 5.18011C13.4196 5.39069 13.6566 5.56832 13.8944 5.64887C14.0222 5.69221 14.1849 5.71953 14.3601 5.67624C14.5448 5.6306 14.6825 5.52157 14.7754 5.39924C14.9326 5.1924 14.9749 4.92863 14.9949 4.77022C15.0145 4.61393 15.0239 4.43379 15.0323 4.27037L15.0364 4.19099C15.0588 3.77419 15.0928 3.46483 15.1906 3.27206C15.2299 3.19471 15.2664 3.16476 15.2983 3.14867C15.3336 3.13091 15.4217 3.10112 15.6113 3.12755C15.7111 3.14147 15.7537 3.17297 15.7766 3.19606C15.8038 3.22364 15.8421 3.28053 15.8686 3.3975C15.9255 3.64846 15.9 4.05054 15.7616 4.57293C15.4888 5.60234 14.8513 6.82981 14.1896 7.6411C13.8202 8.09394 13.6538 8.64939 13.5888 9.06748C13.1948 8.93443 12.8285 8.86723 12.448 8.87511C12.0727 8.88293 11.7069 8.96398 11.3145 9.09301C11.2524 8.67218 11.0868 8.10321 10.7099 7.6411C10.0533 6.83607 9.45076 5.61479 9.21065 4.58891C9.08913 4.06957 9.07683 3.66774 9.14269 3.41493C9.17358 3.29638 9.21534 3.23463 9.24838 3.20219C9.27723 3.17392 9.32549 3.14153 9.42577 3.12755C9.61525 3.10112 9.70345 3.13091 9.73869 3.14867C9.77068 3.16476 9.80715 3.19471 9.84642 3.27206C9.94427 3.46483 9.97814 3.77419 10.0005 4.19099L10.0047 4.27034C10.0132 4.43379 10.0225 4.61393 10.0422 4.77022C10.0621 4.92863 10.1044 5.1924 10.2616 5.39924C10.3546 5.52157 10.4923 5.6306 10.677 5.67624C10.8521 5.71953 11.0148 5.69221 11.1426 5.64887C11.3805 5.56832 11.6175 5.39063 11.851 5.17999Z" fill="#9CE550"/>
<path fill-rule="evenodd" clip-rule="evenodd" d="M12 22C13.1045 22 13.9999 20.9255 14 19.6001L14 18.3L13 17V17.989C12.5587 18.1858 12.2607 18.2758 11.9811 18.2827C11.7102 18.2893 11.4209 18.2179 11 18.0092V17L10 18.3V19.6C10 20.9255 10.8954 22 12 22ZM12 20.8C11.4477 20.8 11 20.2628 11 19.6001L11 19.2886C11.3449 19.423 11.6673 19.4907 12.0016 19.4825C12.3326 19.4743 12.6553 19.3917 13 19.2596V19.6C13 20.2628 12.5523 20.8 12 20.8Z" fill="#9CE550"/>
<path fill-rule="evenodd" clip-rule="evenodd" d="M17.1257 7.10291C17.4617 6.26848 17.9149 5.63867 18.4658 5.29174C19.0463 4.92608 19.7035 4.90037 20.2883 5.236C20.8391 5.55206 21.2622 6.14995 21.5464 6.91036C21.834 7.67997 22 8.66789 22 9.8496V15.4945C22 15.965 21.9088 17.0545 21.3794 18.0478C20.8296 19.0795 19.8028 20 18.0257 20C17.1394 20 16.4778 19.7502 15.9409 19.3621C15.4605 19.015 15.0933 18.5631 14.7746 18.171L14.71 18.0916C14.3602 17.6625 14.0501 17.3 13.6449 17.0329C13.2562 16.7768 12.7522 16.5923 12 16.5923C11.2478 16.5923 10.7438 16.7768 10.3551 17.0329C9.94994 17.3 9.63978 17.6625 9.29 18.0916L9.22539 18.171C8.90672 18.5631 8.5395 19.015 8.05911 19.3621C7.52217 19.7502 6.86056 20 5.97433 20C4.19722 20 3.17042 19.0795 2.62057 18.0478C2.09116 17.0545 2 15.965 2 15.4945V9.8496C2 8.66789 2.16598 7.67997 2.45359 6.91036C2.73777 6.14995 3.16096 5.55206 3.71172 5.236C4.2965 4.90037 4.95367 4.92608 5.53422 5.29174C6.08506 5.63867 6.53828 6.26848 6.87428 7.10291C6.95972 7.31508 7.04322 7.54382 7.13067 7.78309C7.41872 8.57192 7.74889 9.47601 8.32911 10.285C9.048 11.2872 10.1312 12.0972 12 12.0972C13.8688 12.0972 14.952 11.2872 15.6709 10.285C16.2511 9.47601 16.5813 8.57192 16.8693 7.78309C16.9567 7.54393 17.0403 7.31497 17.1257 7.10291ZM7.42544 10.9297C8.32244 12.1804 9.72322 13.2054 12 13.2054C14.2768 13.2054 15.6776 12.1804 16.5746 10.9297C17.2541 9.98242 17.6566 8.87491 17.9467 8.07682C18.0236 7.86521 18.0926 7.67531 18.1568 7.51595C18.4453 6.79954 18.7797 6.40473 19.0591 6.2288C19.3087 6.07154 19.5243 6.07609 19.7342 6.19655C19.9781 6.33652 20.2715 6.67187 20.5053 7.29741C20.7356 7.91375 20.8889 8.76448 20.8889 9.8496V15.4945C20.8889 15.8707 20.8091 16.7569 20.3983 17.5276C20.008 18.26 19.3254 18.8918 18.0257 18.8918C17.3734 18.8918 16.9399 18.7156 16.5928 18.4647C16.2349 18.2061 15.9533 17.8604 15.61 17.4389L15.5721 17.3925C15.2274 16.9697 14.8218 16.4803 14.2574 16.1084C13.6766 15.7256 12.9572 15.4841 12 15.4841C11.0428 15.4841 10.3234 15.7256 9.74261 16.1084C9.17822 16.4803 8.77256 16.9697 8.42789 17.3925L8.39 17.4389C8.04667 17.8604 7.76506 18.2061 7.40717 18.4647C7.06006 18.7156 6.62661 18.8918 5.97433 18.8918C4.67461 18.8918 3.99201 18.26 3.60167 17.5276C3.19091 16.7569 3.11111 15.8707 3.11111 15.4945V9.8496C3.11111 8.76448 3.2644 7.91375 3.49473 7.29741C3.72851 6.67187 4.02193 6.33652 4.26583 6.19655C4.47572 6.07609 4.69133 6.07154 4.94094 6.2288C5.22028 6.40473 5.55472 6.79954 5.84322 7.51595C5.90733 7.67526 5.97633 7.86504 6.05322 8.07655C6.34333 8.87463 6.74594 9.98242 7.42544 10.9297Z" fill="#9CE550"/>
</svg>
